<svg width="64" height="64" viewBox="0 0 64 64" fill="none" xmlns="http://www.w3.org/2000/svg">
<rect width="64" height="64" rx="32" fill="url(#paint0_linear_308_1816)"/>
<path d="M32 37.625C33.5625 37.625 34.8906 37.0781 35.9844 35.9844C37.0781 34.8906 37.625 33.5625 37.625 32C37.625 30.4375 37.0781 29.1094 35.9844 28.0156C34.8906 26.9219 33.5625 26.375 32 26.375C30.4375 26.375 29.1094 26.9219 28.0156 28.0156C26.9219 29.1094 26.375 30.4375 26.375 32C26.375 33.5625 26.9219 34.8906 28.0156 35.9844C29.1094 37.0781 30.4375 37.625 32 37.625ZM32 35.375C31.0625 35.375 30.2656 35.0469 29.6094 34.3906C28.9531 33.7344 28.625 32.9375 28.625 32C28.625 31.0625 28.9531 30.2656 29.6094 29.6094C30.2656 28.9531 31.0625 28.625 32 28.625C32.9375 28.625 33.7344 28.9531 34.3906 29.6094C35.0469 30.2656 35.375 31.0625 35.375 32C35.375 32.9375 35.0469 33.7344 34.3906 34.3906C33.7344 35.0469 32.9375 35.375 32 35.375ZM32 41.375C28.9583 41.375 26.1875 40.526 23.6875 38.8281C21.1875 37.1302 19.375 34.8542 18.25 32C19.375 29.1458 21.1875 26.8698 23.6875 25.1719C26.1875 23.474 28.9583 22.625 32 22.625C35.0417 22.625 37.8125 23.474 40.3125 25.1719C42.8125 26.8698 44.625 29.1458 45.75 32C44.625 34.8542 42.8125 37.1302 40.3125 38.8281C37.8125 40.526 35.0417 41.375 32 41.375ZM32 38.875C34.3542 38.875 36.5156 38.2552 38.4844 37.0156C40.4531 35.776 41.9583 34.1042 43 32C41.9583 29.8958 40.4531 28.224 38.4844 26.9844C36.5156 25.7448 34.3542 25.125 32 25.125C29.6458 25.125 27.4844 25.7448 25.5156 26.9844C23.5469 28.224 22.0417 29.8958 21 32C22.0417 34.1042 23.5469 35.776 25.5156 37.0156C27.4844 38.2552 29.6458 38.875 32 38.875Z" fill="#FFFDF7"/>
<defs>
<linearGradient id="paint0_linear_308_1816" x1="104" y1="104" x2="0" y2="0" gradientUnits="userSpaceOnUse">
<stop stop-color="#DFB6B2"/>
<stop offset="1" stop-color="#2A114B"/>
</linearGradient>
</defs>
</svg>
